<svg width="18" height="16" fill="none" xmlns="http://www.w3.org/2000/svg"><path d="M12.75.5A4.99 4.99 0 0 0 9 2.242 4.99 4.99 0 0 0 5.25.5C2.683.5.667 2.517.667 5.083c0 3.15 2.833 5.717 7.125 9.617L9 15.792l1.208-1.1c4.292-3.892 7.125-6.459 7.125-9.609C17.333 2.517 15.317.5 12.75.5ZM9.083 13.458 9 13.542l-.083-.084C4.95 9.867 2.333 7.492 2.333 5.083c0-1.666 1.25-2.916 2.917-2.916 1.283 0 2.533.825 2.975 1.966h1.558c.434-1.141 1.684-1.966 2.967-1.966 1.667 0 2.917 1.25 2.917 2.916 0 2.409-2.617 4.784-6.584 8.375Z" fill="#323232"/></svg>